<svg xmlns="http://www.w3.org/2000/svg" width="1173" height="1173" viewBox="0 0 1173 1173" fill="none"><rect width="1173" height="1173" fill="#F6E458"/><g transform="scale(43.44444444444444) translate(-3.15 -3.3)"><path d="M14.899999999999999 6.6 H18.400000000000002 A1.7 1.7 0 0 1 20.1 8.299999999999999 V10.600000000000001 A1.7 1.7 0 0 1 18.400000000000002 12.3 H14.899999999999999 A1.7 1.7 0 0 1 13.2 10.600000000000001 V8.299999999999999 A1.7 1.7 0 0 1 14.899999999999999 6.6 Z" fill="#000000"/><path d="M14.899999999999999 13.5 H18.400000000000002 A1.7 1.7 0 0 1 20.1 15.2 V18.3 A1.7 1.7 0 0 1 18.400000000000002 20 H14.899999999999999 A1.7 1.7 0 0 1 13.2 18.3 V15.2 A1.7 1.7 0 0 1 14.899999999999999 13.5 Z" fill="#000000"/><path d="M14.899999999999999 21.2 H18.400000000000002 A1.7 1.7 0 0 1 20.1 22.9 V25.5 A1.7 1.7 0 0 1 18.400000000000002 27.2 H14.899999999999999 A1.7 1.7 0 0 1 13.2 25.5 V22.9 A1.7 1.7 0 0 1 14.899999999999999 21.2 Z" fill="#000000"/><path d="M20.6 12.4c3.1-.5 5.5-2.9 6-6-3.1.5-5.5 2.9-6 6z" fill="#000000"/><path d="M12.7 20.4c-3.1-.5-5.5-2.9-6-6 3.1.5 5.5 2.9 6 6z" fill="#000000"/></g></svg>